<?xml version="1.0" encoding="utf-8"?>
<!-- Generator: Adobe Illustrator 22.0.1, SVG Export Plug-In . SVG Version: 6.00 Build 0)  -->
<svg version="1.1" id="Layer_1" xmlns="http://www.w3.org/2000/svg" xmlns:xlink="http://www.w3.org/1999/xlink" x="0px" y="0px"
	 viewBox="0 0 1366 768" style="enable-background:new 0 0 1366 768;" xml:space="preserve">
<style type="text/css">
	.st0{fill:#C0E0FF;}
</style>
<path class="st0" d="M18,140.3c36.7,56,102.3,82.2,160,79.4c56.8-2.6,97.1-32.8,114-47.1c13.8-11.8,38.7-29.7,73.1-35.5
	c0,0,17.3-3.2,35.1-1.2C506,147.3,515.8,261.4,614.2,269.5c98.9,8.1,129.3-103.8,222.1-93.1c79.9,9.3,99.1,99.2,191.1,179.6
	c64.1,56,167.7,115.9,339,126c0-126,0-251.9,0-377.9c-455.5,0-910.9,0-1366.3,0C3.4,113.5,9,126.4,18,140.3z"/>
<rect x="-0.3" class="st0" width="1366.6" height="111.5"/>
</svg>
